<svg xmlns="http://www.w3.org/2000/svg" width="386.199" height="304.48" viewBox="0 0 386.199 304.48">
  <g id="Group_8" data-name="Group 8" transform="translate(-3041.643 -958.22)">
    <path id="Path_12" data-name="Path 12" d="M58.23,116.47V93.33l11.93-6.39H85.2V90l-9.94,7.45L220.35,28.31s7.1.99,6.03,8.73L85.06,103.66l-.11,6.81-10.86,6Z" transform="translate(3008.36 929.91)" fill="#022644"/>
    <path id="Path_13" data-name="Path 13" d="M103.8,83.64,92.3,89.2V72.13l11.5-11.68Z" transform="translate(3008.36 929.91)" fill="#022644"/>
    <path id="Path_14" data-name="Path 14" d="M92.8,105.72l11.5-5.55v22.91L92.8,139.92Z" transform="translate(3008.36 929.91)" fill="#022644"/>
    <path id="Path_15" data-name="Path 15" d="M109.98,97.93l6.01-2.27v26h-6.01Z" transform="translate(3008.36 929.91)" fill="#022644"/>
    <path id="Path_16" data-name="Path 16" d="M110.15,80.65l5.81-2.77-.05-6.29-5.76-1.55Z" transform="translate(3008.36 929.91)" fill="#022644"/>
    <rect id="Rectangle_11" data-name="Rectangle 11" width="1.67" height="57.32" transform="translate(3219.42 972.74)" fill="#022644"/>
    <rect id="Rectangle_12" data-name="Rectangle 12" width="1.67" height="57.32" transform="translate(3227.33 969.55)" fill="#022644"/>
    <path id="Path_17" data-name="Path 17" d="M206.8,101.78l9.3-5.11h8.94v13.91l-6.46,3.62v7.31h-4.26V110l-2.48,5.04-5.04.05Z" transform="translate(3008.36 929.91)" fill="#022644"/>
    <circle id="Ellipse_3" data-name="Ellipse 3" cx="2.41" cy="2.41" r="2.41" transform="translate(3219.9 1049.72)" fill="#022644"/>
    <path id="Path_18" data-name="Path 18" d="M189.3,121.51h65v13.56l-55.04,67.4h43.38l.15-14.94,10.73.03-.02,24.81H188.55V199.22l53.95-67.34-42.34.05v15.39l-10.97.1Z" transform="translate(3008.36 929.91)" fill="#022644"/>
    <ellipse id="Ellipse_4" data-name="Ellipse 4" cx="7.06" cy="5.59" rx="7.06" ry="5.59" transform="translate(3217.4 1053.16)" fill="none" stroke="#022644" stroke-miterlimit="10" stroke-width="3"/>
    <text id="INTERNATIONAL" transform="translate(3209.212 1192.86)" fill="#022644" font-size="28.35" font-family="Cambria-Bold, Cambria" font-weight="700"><tspan x="0" y="0">INTERNATIONAL</tspan></text>
    <text id="LTD" transform="translate(3389.842 1210.623)" fill="#022644" font-size="20.85" font-family="Cambria-Bold, Cambria" font-weight="700"><tspan x="0" y="0">LTD</tspan></text>
    <path id="Path_19" data-name="Path 19" d="M165.73,275.8h28.96V241.35c-7.07,0-13.84.01-20.62,0-6.16-.01-8.12-1.96-8.16-8.24-.05-8.76-.02-17.52-.06-26.28-.03-5.06-1.34-6.39-6.51-6.31q-14.58.225-29.17.61c-5.57.14-6.66,1.32-6.69,7.05-.03,8.9-.08,17.8-.03,26.69.02,3.88-1.88,6.34-5.6,6.4-12.48.2-24.96.08-38.42.08,24.33-39.06,48.24-77.45,72.56-116.48-14.88,0-31.16-.07-45.17.11-.47.83-.7,1.26-1.48,2.54-6.98,10.7-13.83,21.48-20.67,32.27q-24.96,39.405-49.86,78.85c-.65,1.03-.8,1.38-1.45,2.52-.11,11.08-.07,23-.07,34.61h89.93v19.62H103.4v36.78c.69.45,3.37.63,4.82.62,26.55-.14,53.11-.07,79.66-.1.55,0,3.6-.05,4.16-.1V295.42H165.72V275.8Zm-5.83-38.88H130.05v-30.4H159.9Z" transform="translate(3008.36 929.91)" fill="#022644"/>
    <rect id="Rectangle_13" data-name="Rectangle 13" width="29.85" height="30.4" transform="translate(3138.42 1136.43)" fill="#fff" opacity="0"/>
  </g>
</svg>
