<svg xmlns="http://www.w3.org/2000/svg" width="21.214" height="33.436" viewBox="0 0 21.214 33.436">
  <g id="_2769122" data-name="2769122" transform="translate(-107.068 490.78)">
    <path id="Path_12" data-name="Path 12" d="M116.966-490.746a11.6,11.6,0,0,0-3.17.712,10.664,10.664,0,0,0-6.5,7.573,12.587,12.587,0,0,0-.1,4.232c.62,4.267,3.2,10.3,7.388,17.283,1.517,2.536,1.981,3.2,2.379,3.42a1.488,1.488,0,0,0,1.425,0c.37-.207.9-.969,2.258-3.213,4.232-7.017,6.882-13.2,7.509-17.518a13.056,13.056,0,0,0-.071-4.075,10.635,10.635,0,0,0-5.692-7.324A10.747,10.747,0,0,0,116.966-490.746Zm1.781,6.191a4.621,4.621,0,0,1,2.985,2.379,4.322,4.322,0,0,1,.484,2.28,4.491,4.491,0,0,1-2.479,3.811,4.566,4.566,0,0,1-4.047.036,4.5,4.5,0,0,1-2.55-3.847,4.322,4.322,0,0,1,.484-2.28,4.651,4.651,0,0,1,2.949-2.379A5.863,5.863,0,0,1,118.747-484.555Z" transform="translate(0 0)" fill="#fff"/>
  </g>
</svg>
