<svg xmlns="http://www.w3.org/2000/svg" width="164.809" height="163.543" viewBox="0 0 164.809 163.543">
  <g id="_3069840" data-name="3069840" transform="translate(-0.647 511.908)">
    <path id="Path_26" data-name="Path 26" d="M218.172-511.744c-10,1.162-15.523,2.582-22.3,5.777-6.358,3-10.941,6.422-14.426,10.779-13.651,17.137-.161,38.017,28.239,43.762,2.195.42,5.357.9,7.035,1.033l3.034.258,5.583,8.714c3.066,4.776,5.841,8.907,6.132,9.1a2.5,2.5,0,0,0,3.1-.323c.581-.581,1.065-2.388,2.614-9.811l1.9-9.1,1.646-.387c.9-.194,3.163-.871,5-1.485,13.1-4.325,22.139-12.231,25.076-21.881a24.393,24.393,0,0,0-.129-11.618c-3.2-9.65-12.2-17.3-25.4-21.623a68.33,68.33,0,0,0-22.075-3.356C220.98-511.873,218.721-511.777,218.172-511.744Zm13.522,5.454c15.491,1.807,28.4,8.811,32.789,17.75,3.453,7.068,2.162,13.974-3.84,20.267-5.067,5.293-12.361,9.133-21.591,11.392-2.808.678-3.776,1.033-4.131,1.581a58.322,58.322,0,0,0-1.84,7.2c-.742,3.582-1.42,6.519-1.517,6.519s-2-2.84-4.2-6.325a62.042,62.042,0,0,0-4.68-6.745,18.128,18.128,0,0,0-4.68-.807c-17.944-1.581-32.208-9.65-35.887-20.267a18.248,18.248,0,0,1,0-10.521,20.845,20.845,0,0,1,5.067-7.778C196.291-503.386,214.235-508.323,231.694-506.29Z" transform="translate(-118.817)"/>
    <path id="Path_27" data-name="Path 27" d="M272-453.418v2.582h12.909V-456H272Z" transform="translate(-183.779 -37.865)"/>
    <path id="Path_28" data-name="Path 28" d="M328-453.418v2.582h5.164V-456H328Z" transform="translate(-221.707 -37.865)"/>
    <path id="Path_29" data-name="Path 29" d="M360-453.418v2.582h12.909V-456H360Z" transform="translate(-243.379 -37.865)"/>
    <path id="Path_30" data-name="Path 30" d="M248-421.418v2.582h30.982V-424H248Z" transform="translate(-167.525 -59.538)"/>
    <path id="Path_31" data-name="Path 31" d="M360-421.418v2.582h12.909V-424H360Z" transform="translate(-243.379 -59.538)"/>
    <path id="Path_32" data-name="Path 32" d="M248-389.418v2.582h10.327V-392H248Z" transform="translate(-167.525 -81.21)"/>
    <path id="Path_33" data-name="Path 33" d="M296-389.418v2.582h28.4V-392H296Z" transform="translate(-200.034 -81.21)"/>
    <path id="Path_34" data-name="Path 34" d="M116.388-464.935c-1.323.613-3.582,1.775-5,2.614-15.3,9.295-19.557,23.688-10.65,36.146,2.84,4,8.649,8.617,14.006,11.166,1.678.807,2.291,1.226,2.162,1.614-.387,1.355-2.743,12.361-2.743,12.909a2.889,2.889,0,0,0,2.453,2.259c.581,0,3.776-1.84,9.488-5.486l8.585-5.454,2.9.29a70.254,70.254,0,0,0,19.912-1c4.228-.775,4.905-1.065,5.422-2.291a2.385,2.385,0,0,0-1.065-3.13c-.742-.42-1.226-.42-4.647.226a74.707,74.707,0,0,1-22.075.839l-1.775-.194-6.229,3.937c-3.421,2.162-6.261,3.9-6.325,3.84a39.841,39.841,0,0,1,.807-4.163,47.285,47.285,0,0,0,.936-4.744c0-1.065-1.226-2.162-3.55-3.163-8.391-3.55-14.846-9.617-16.976-15.975a18.742,18.742,0,0,1,.226-10.327c2.195-5.841,7.229-10.65,15.265-14.684,4.131-2.065,4.712-2.679,4.26-4.454A3.227,3.227,0,0,0,119.26-466,18.656,18.656,0,0,0,116.388-464.935Z" transform="translate(-64.668 -31.092)"/>
    <path id="Path_35" data-name="Path 35" d="M32.259-247.417a18.16,18.16,0,0,0-13.651,18.525,17.438,17.438,0,0,0,5.228,11.683l1.775,1.807-2.162.678c-8,2.42-14.3,7.455-17.556,14.071-1.549,3.1-1.71,3.711-3.615,13.038-2.291,11.392-2.324,10.941.9,12.2a108.037,108.037,0,0,0,24.85,5.615,131.428,131.428,0,0,0,21.784-.516,105.254,105.254,0,0,0,20.171-5.1c3.227-1.259,3.2-.839.9-12.135-1.84-9.2-2.033-9.876-3.582-13.038a25.838,25.838,0,0,0-8.23-9.65,46.627,46.627,0,0,0-9.65-4.647l-1.872-.581,1.452-1.388a20.049,20.049,0,0,0,4.744-7.455,20.817,20.817,0,0,0,.129-10.715,19.156,19.156,0,0,0-4.55-7.584A18.417,18.417,0,0,0,32.259-247.417Zm9.617,5.874a12.334,12.334,0,0,1,6.261,6.132c1.13,2.324,1.194,2.614,1.194,5.551s-.065,3.227-1.194,5.551a12.4,12.4,0,0,1-6.325,6.164c-1.969.936-2.453,1.033-5.228,1.033s-3.26-.1-5.228-1.033a12.4,12.4,0,0,1-6.325-6.164c-1.13-2.324-1.194-2.614-1.194-5.519,0-2.808.1-3.292,1.033-5.26a12.462,12.462,0,0,1,5.551-6,11.032,11.032,0,0,1,6.874-1.549A10.543,10.543,0,0,1,41.877-241.543Zm1.678,30.562c8.036,1.517,14.749,5.454,18.008,10.586,1.807,2.84,2.582,5.228,4.066,12.651.71,3.744,1.388,7.035,1.485,7.326.129.452-.484.742-3.485,1.678a99.221,99.221,0,0,1-14.458,3.324c-5.325.839-19.88.807-25.173-.032A98.664,98.664,0,0,1,9.539-178.74c-3-.936-3.615-1.226-3.485-1.678.1-.29.775-3.582,1.485-7.326.742-3.744,1.71-7.681,2.1-8.778A20.241,20.241,0,0,1,19.77-207.56c4.228-2.162,7.552-3.13,13.748-4.034A47.18,47.18,0,0,1,43.555-210.981Z" transform="translate(0 -178.804)"/>
    <path id="Path_36" data-name="Path 36" d="M320.26-247.417a18.485,18.485,0,0,0-13.748,17.266,18.482,18.482,0,0,0,5.131,12.78l1.969,1.969-2.195.678c-7.971,2.42-14.265,7.487-17.524,14.071-1.549,3.1-1.71,3.711-3.615,13.038-2.291,11.392-2.324,10.941.9,12.2a108.037,108.037,0,0,0,24.85,5.615,131.516,131.516,0,0,0,21.784-.516,102.5,102.5,0,0,0,19.686-4.938c3.776-1.388,3.711-.775,1.388-12.361-1.9-9.424-2.033-9.908-3.679-13.2a19.032,19.032,0,0,0-4.776-6.455c-3.421-3.389-6.616-5.325-12.006-7.229l-2.872-1.033,1.485-1.388a20.017,20.017,0,0,0,4.712-7.391,20.817,20.817,0,0,0,.129-10.715,19.156,19.156,0,0,0-4.55-7.584A18.417,18.417,0,0,0,320.26-247.417Zm9.617,5.874a12.334,12.334,0,0,1,6.261,6.132c1.13,2.324,1.194,2.614,1.194,5.551s-.065,3.227-1.194,5.551a12.4,12.4,0,0,1-6.326,6.164c-1.969.936-2.453,1.033-5.228,1.033s-3.26-.1-5.228-1.033a12.4,12.4,0,0,1-6.325-6.164c-1.13-2.324-1.194-2.614-1.194-5.519,0-2.808.1-3.292,1.033-5.26a12.462,12.462,0,0,1,5.551-6,11.032,11.032,0,0,1,6.874-1.549A10.543,10.543,0,0,1,329.877-241.543Zm1.678,30.562c8.068,1.517,14.749,5.454,18.073,10.682,1.743,2.711,2.517,5.2,4,12.554.71,3.744,1.388,7.035,1.485,7.326.129.452-.484.742-3.485,1.678a99.9,99.9,0,0,1-14.458,3.324c-5.325.839-19.88.807-25.173-.032a106.993,106.993,0,0,1-14.942-3.421c-2.55-.807-3.13-1.1-3-1.549.1-.29.775-3.582,1.485-7.326.742-3.744,1.71-7.681,2.1-8.778A20.241,20.241,0,0,1,307.77-207.56c4.228-2.162,7.552-3.13,13.748-4.034A47.179,47.179,0,0,1,331.555-210.981Z" transform="translate(-195.054 -178.804)"/>
  </g>
</svg>
