<svg xmlns="http://www.w3.org/2000/svg" width="163.163" height="160.637" viewBox="0 0 163.163 160.637">
  <g id="construction" transform="translate(-0.075 508)">
    <path id="Path_2" data-name="Path 2" d="M41.9-507.522a2.376,2.376,0,0,0-.861,1.371c-.1.478-.7,6.948-1.307,14.406-.637,7.458-1.211,13.865-1.307,14.279l-.127.7-8.032-.064-8-.1-.414-1.4a5.7,5.7,0,0,0-3.474-3.729c-1.116-.414-2.486-.478-7.872-.382-6.47.1-6.534.1-7.809.956A5.9,5.9,0,0,0,.72-479.219c-.669,1.4-.7,1.721-.606,11.6l.1,10.2.924,1.179c1.785,2.359,2.04,2.422,9.912,2.422,6.693,0,7.076-.032,8.287-.733a5.761,5.761,0,0,0,2.709-4.143v-.861H37.437L37.214-452c-.127,4.175-.414,14.183-.669,22.247s-.733,25.4-1.116,38.566c-.382,13.131-.733,24.51-.829,25.211l-.159,1.307-2.295.159a8.21,8.21,0,0,0-7.554,5.131c-.733,1.689-1.243,7.394-.829,9.594.382,2.1,1.02,2.422,4.59,2.422,2.869,0,3.187-.064,3.825-.733,1.562-1.657.255-4.048-2.167-4.048H28.736v-2.677c0-2.932.446-3.92,2.135-4.622.669-.255,5.386-.351,17.243-.287l16.319.1,1.02,1.052c.988.988,1.052,1.179,1.179,3.729l.1,2.709H53.023c-15.235,0-14.821-.064-15.235,2.135a1.65,1.65,0,0,0,.606,1.817l.829.829H70.139l.637-.829c.606-.765.669-1.275.669-5a30.294,30.294,0,0,0-.351-5.323,9.9,9.9,0,0,0-4.271-5.068c-1.4-.733-2.072-.829-5.163-.924l-3.6-.128v-.988c0-.574-.223-7.841-.478-16.159s-.829-27.347-1.243-42.231c-.446-14.916-.892-29-.988-31.331l-.191-4.207H68.577v6.6c0,7.2.223,8.287,1.944,9.88,1.753,1.626,2.39,1.689,13.61,1.689,10.359,0,10.486,0,11.888-.733a8.245,8.245,0,0,0,2.359-2.1l.956-1.371.1-6.98.1-6.98h24.829v26.295l-9.944,9.944-9.976,9.976h-3.06c-2.645,0-3.219.1-4.143.733-1.689,1.116-2.2,2.454-2.2,5.833v2.9l-1.785.223c-2.231.255-3.506.892-4.271,2.2-.542.861-.637,1.625-.637,4.685,0,5.9.892,6.725,7.171,6.916,4.175.128,5.068-.1,5.865-1.53a1.692,1.692,0,0,0,.064-1.817c-.542-1.307-1.689-1.657-5.323-1.657h-3v-3.825h65.338v3.825H133.6c-21.227,0-25.02.064-25.785.478-2.167,1.116-1.53,4.016.988,4.462.574.1,12.3.159,26.072.1,23.968-.1,25.052-.128,26.04-.7,1.785-1.084,2.327-2.55,2.327-6.215,0-3.57-.319-4.526-1.88-5.833a5.5,5.5,0,0,0-2.231-1.02l-1.307-.191v-2.964c0-3.41-.51-4.749-2.2-5.865-.924-.637-1.5-.733-3.984-.733h-2.9l-9.785-9.849L129.134-433v-26.55h7.3c7.235,0,7.331,0,8.191-.733,1.657-1.434,1.37-2.04-4.048-9.02-2.709-3.474-5.163-6.6-5.45-6.884-.478-.478-1.116-.574-3.506-.574a12.624,12.624,0,0,1-6.119-1.243c-1.785-.7-19.474-7.745-39.362-15.617L49.963-508h-3.7C43.493-508,42.41-507.872,41.9-507.522Zm5.323,4.908c0,.765,1.817,21.928,2.072,24.159l.191,1.689H43.4v-.892c0-1.147,1.88-23.2,2.1-24.542.127-.829.319-1.02.924-1.02C47-503.219,47.222-503.06,47.222-502.614Zm36.653,13.259,31.3,12.43-17.912.159-17.912.159-.606.765a2.088,2.088,0,0,0,.191,3.06l.765.8h26.39l26.39.032,2.8,3.6c1.53,2.008,2.773,3.729,2.773,3.825s-26.072.159-57.912.128l-57.944-.1-.1-3.761-.1-3.729H71.8l.765-.8a2.14,2.14,0,0,0,.127-3.155l-.637-.829H63.127a82.13,82.13,0,0,1-8.892-.255c0-.478-1.912-22.247-2.072-23.586-.1-.8-.032-1.339.127-1.275S66.664-496.207,83.876-489.355Zm-67,11.888c.287.223.382,2.327.319,9.5l-.1,9.211H4.991l-.1-9.052c-.064-6.406.032-9.179.287-9.466.287-.351,1.594-.446,5.833-.446A40.63,40.63,0,0,1,16.88-477.466Zm31.3,18.072c0,.1-1.371,1.976-3.028,4.207l-3.028,4.016v-8.382h3.028A14.034,14.034,0,0,1,48.178-459.395Zm46.534,6.024c0,5.227-.1,6.279-.51,6.693-.414.446-1.785.51-10.167.51s-9.753-.064-10.167-.51c-.414-.414-.51-1.466-.51-6.693v-6.183H94.712ZM50.919-439.889a74.061,74.061,0,0,1-7.2-5.259c0-.127,1.53-2.231,3.442-4.685l3.41-4.462.223,7.171C50.919-443.2,50.983-439.952,50.919-439.889Zm-5.418,2.2c1.817,1.307,3.315,2.454,3.315,2.518,0,.191-7.363,10.359-7.49,10.359-.159,0,.159-12.271.351-13.96a2.976,2.976,0,0,1,.351-1.339C42.123-440.112,43.684-439.028,45.5-437.689Zm6.151,20.59a37.018,37.018,0,0,1-.128,4.717c-.287,0-8.255-5.928-8.351-6.215a53.543,53.543,0,0,1,3.984-5.9l4.048-5.578.191,4.143C51.525-423.666,51.621-419.681,51.653-417.1Zm72.7-2.773v6.534H111.126l6.534-6.534c3.6-3.6,6.566-6.534,6.6-6.534C124.322-426.407,124.354-423.474,124.354-419.873Zm11.315.159,6.374,6.374H129.134v-6.374c0-3.506.032-6.374.1-6.374C129.262-426.088,132.162-423.219,135.668-419.713ZM43.876-411.9c1.243.892,3.06,2.231,4.048,2.964l1.849,1.371-4.558,5.705c-2.486,3.123-4.59,5.705-4.685,5.705-.1.032-.064-2.868.032-6.406.127-3.57.223-7.586.255-8.956.032-1.912.127-2.422.446-2.263C41.453-413.626,42.665-412.8,43.876-411.9Zm109.163,5.737v2.391H99.812v-4.781h53.227ZM52.481-392.048l.223,9.371-4.749-3.41c-2.582-1.881-4.972-3.633-5.259-3.888-.478-.446-.127-.988,4.3-6.5,3.729-4.685,4.876-5.928,5.036-5.482C52.131-401.642,52.354-397.18,52.481-392.048Zm-7.139,9.976,4.462,3.219-1.084,1.339c-.574.7-2.9,3.6-5.163,6.406l-4.08,5.1.223-7.012c.1-3.857.191-8.287.191-9.849,0-2.39.064-2.773.478-2.614C40.657-385.387,42.888-383.857,45.342-382.072Zm7.872,17.37a43.163,43.163,0,0,1-4.4.064l-4.207-.1,4.112-5.131L52.8-375l.287,5.068C53.214-367.124,53.278-364.8,53.214-364.7Z" transform="translate(0 0)"/>
  </g>
</svg>
