<svg xmlns="http://www.w3.org/2000/svg" width="162.382" height="162.382" viewBox="0 0 162.382 162.382">
  <g id="development" transform="translate(0 0)">
    <path id="Path_21" data-name="Path 21" d="M159.525,65.35l-13.989-1.395a66.045,66.045,0,0,0-6.661-16.069L147.783,37a3.171,3.171,0,0,0-.212-4.252l-17.94-17.94a3.172,3.172,0,0,0-4.252-.212L114.5,23.507a66.041,66.041,0,0,0-16.072-6.664L97.032,2.857A3.171,3.171,0,0,0,93.877,0H68.5a3.17,3.17,0,0,0-3.155,2.857L63.954,16.843a66.073,66.073,0,0,0-16.071,6.664L37,14.6a3.171,3.171,0,0,0-4.018,4.907L45.594,29.83a3.171,3.171,0,0,0,3.691.235A59.786,59.786,0,0,1,67.6,22.471a3.173,3.173,0,0,0,2.444-2.776L71.376,6.343h19.63l1.331,13.351a3.173,3.173,0,0,0,2.444,2.776A59.768,59.768,0,0,1,113.1,30.064a3.169,3.169,0,0,0,3.691-.234l10.389-8.5,13.88,13.88L132.551,45.6a3.171,3.171,0,0,0-.235,3.691A59.741,59.741,0,0,1,139.907,67.6a3.174,3.174,0,0,0,2.776,2.444l13.355,1.332v19.63l-13.353,1.331a3.173,3.173,0,0,0-2.776,2.444,59.774,59.774,0,0,1-7.593,18.316,3.171,3.171,0,0,0,.235,3.691l8.5,10.389-13.88,13.88-10.389-8.5a3.171,3.171,0,0,0-3.691-.235,59.755,59.755,0,0,1-18.316,7.594,3.172,3.172,0,0,0-2.443,2.776L91,156.039H71.375l-1.332-13.353a3.17,3.17,0,0,0-2.443-2.775,59.776,59.776,0,0,1-18.316-7.594,3.171,3.171,0,0,0-3.691.235l-10.389,8.5-13.88-13.88,8.5-10.389a3.173,3.173,0,0,0,.235-3.692A59.766,59.766,0,0,1,22.47,94.782a3.171,3.171,0,0,0-2.776-2.444L6.343,91.005V71.376L19.7,70.045A3.173,3.173,0,0,0,22.472,67.6a59.773,59.773,0,0,1,7.593-18.316,3.171,3.171,0,0,0-.235-3.691L19.506,32.984A3.171,3.171,0,1,0,14.6,37l8.908,10.881a66.094,66.094,0,0,0-6.663,16.072L2.856,65.35A3.171,3.171,0,0,0,0,68.505V93.877a3.171,3.171,0,0,0,2.857,3.155l13.986,1.395A66.093,66.093,0,0,0,23.506,114.5L14.6,125.379a3.171,3.171,0,0,0,.212,4.252l17.94,17.94a3.171,3.171,0,0,0,4.252.212l10.881-8.908a66.087,66.087,0,0,0,16.071,6.663l1.395,13.987a3.172,3.172,0,0,0,3.157,2.857H93.877a3.171,3.171,0,0,0,3.155-2.857l1.395-13.986a66.048,66.048,0,0,0,16.071-6.665l10.881,8.909a3.172,3.172,0,0,0,4.252-.212l17.94-17.94a3.171,3.171,0,0,0,.212-4.252L138.875,114.5a66.074,66.074,0,0,0,6.663-16.072l13.987-1.394a3.172,3.172,0,0,0,2.857-3.157V68.505a3.171,3.171,0,0,0-2.857-3.155Zm0,0"/>
    <path id="Path_22" data-name="Path 22" d="M182.019,168.42a3.171,3.171,0,0,0,4.344-1.116,53.907,53.907,0,1,0-19.058,19.058,3.172,3.172,0,1,0-3.227-5.461A47.56,47.56,0,1,1,180.9,164.076a3.172,3.172,0,0,0,1.117,4.343Zm0,0" transform="translate(-58.725 -58.725)"/>
    <path id="Path_23" data-name="Path 23" d="M75.22,78.4a3.157,3.157,0,0,0,2.132-.824v0a3.17,3.17,0,1,0-2.133.826Zm0,0" transform="translate(-49.198 -49.203)"/>
    <path id="Path_24" data-name="Path 24" d="M362.312,365.475a3.172,3.172,0,1,0-2.031-5.608h0a3.171,3.171,0,0,0,2.033,5.607Zm0,0" transform="translate(-245.237 -245.232)"/>
    <path id="Path_25" data-name="Path 25" d="M149.172,163.663A3.171,3.171,0,0,0,146,166.835V198.55a3.172,3.172,0,0,0,3.172,3.172H212.6a3.172,3.172,0,0,0,3.172-3.172V166.835a3.171,3.171,0,0,0-3.172-3.172H198.081v-1.64a3.171,3.171,0,0,0,3.714-5.14l-19.029-14a3.171,3.171,0,0,0-3.759,0l-19.029,14a3.17,3.17,0,0,0,3.714,5.139v1.642Zm14.521,6.343v5.542l-2.875,2.116h-8.474v-7.657Zm17.194.766,10.851,7.983v16.623h-7.68v-11.1a3.172,3.172,0,1,0-6.343,0v11.1h-7.68V178.755Zm-28.544,13.235h9.515a3.173,3.173,0,0,0,1.835-.587v11.959H152.343Zm45.738,11.372V183.42a3.173,3.173,0,0,0,1.835.587h9.515v11.372Zm11.349-25.372v7.657h-8.474l-2.875-2.116v-5.542Zm-28.544-20.632,10.851,7.985v13.522l-7.68-5.65v-4.54a3.172,3.172,0,1,0-6.343,0v4.54l-7.68,5.65V157.358Zm0,0" transform="translate(-99.696 -97.145)"/>
  </g>
</svg>
