<svg xmlns="http://www.w3.org/2000/svg" width="37.819" height="26" viewBox="0 0 37.819 26">
  <g id="email" transform="translate(0 -80)">
    <g id="Group_25" data-name="Group 25" transform="translate(25.069 84.794)">
      <g id="Group_24" data-name="Group 24">
        <path id="Path_14" data-name="Path 14" d="M339.392,153.3l12.75,8.06V144.9Z" transform="translate(-339.392 -144.896)" fill="#fff"/>
      </g>
    </g>
    <g id="Group_27" data-name="Group 27" transform="translate(0 84.794)">
      <g id="Group_26" data-name="Group 26">
        <path id="Path_15" data-name="Path 15" d="M0,144.9v16.461l12.75-8.06Z" transform="translate(0 -144.896)" fill="#fff"/>
      </g>
    </g>
    <g id="Group_29" data-name="Group 29" transform="translate(0.071 80)">
      <g id="Group_28" data-name="Group 28" transform="translate(0 0)">
        <path id="Path_16" data-name="Path 16" d="M36.344,80H3.253A2.334,2.334,0,0,0,.96,82.011L19.8,94.423,38.637,82.011A2.334,2.334,0,0,0,36.344,80Z" transform="translate(-0.96 -80)" fill="#fff"/>
      </g>
    </g>
    <g id="Group_31" data-name="Group 31" transform="translate(0.076 94.619)">
      <g id="Group_30" data-name="Group 30">
        <path id="Path_17" data-name="Path 17" d="M23.852,277.922l-3.345,2.2a1.187,1.187,0,0,1-1.3,0l-3.345-2.205L1.024,287.306A2.331,2.331,0,0,0,3.312,289.3H36.4a2.331,2.331,0,0,0,2.288-1.995Z" transform="translate(-1.024 -277.92)" fill="#fff"/>
      </g>
    </g>
  </g>
</svg>
