<svg xmlns="http://www.w3.org/2000/svg" width="35.074" height="35.075" viewBox="0 0 35.074 35.075">
  <path id="linkedin_1_" data-name="linkedin (1)" d="M17.537,0A17.537,17.537,0,1,0,35.074,17.537,17.539,17.539,0,0,0,17.537,0Zm-5.1,26.511H8.17V13.662h4.271Zm-2.135-14.6h-.028a2.226,2.226,0,1,1,.056-4.44,2.227,2.227,0,1,1-.028,4.44Zm17.536,14.6H23.571V19.637c0-1.728-.618-2.906-2.164-2.906a2.338,2.338,0,0,0-2.191,1.562,2.925,2.925,0,0,0-.14,1.042v7.176H14.8s.056-11.644,0-12.85h4.271v1.819a4.24,4.24,0,0,1,3.849-2.121c2.81,0,4.917,1.837,4.917,5.783Zm0,0" fill="#fff"/>
</svg>
