<svg xmlns="http://www.w3.org/2000/svg" width="25.993" height="26.047" viewBox="0 0 25.993 26.047">
  <g id="phone-call" transform="translate(-0.539)">
    <g id="Group_23" data-name="Group 23" transform="translate(0.539 0)">
      <path id="Path_13" data-name="Path 13" d="M25.85,19.116l-3.635-3.635a2.418,2.418,0,0,0-4.024.909,2.474,2.474,0,0,1-2.856,1.558c-2.6-.649-6.1-4.024-6.751-6.751a2.353,2.353,0,0,1,1.558-2.856,2.418,2.418,0,0,0,.909-4.024L7.416.682a2.593,2.593,0,0,0-3.505,0L1.444,3.148c-2.467,2.6.26,9.477,6.361,15.579s12.982,8.958,15.579,6.361l2.467-2.467A2.593,2.593,0,0,0,25.85,19.116Z" transform="translate(-0.539 0)" fill="#fff"/>
    </g>
  </g>
</svg>
