<svg xmlns="http://www.w3.org/2000/svg" width="160.196" height="161.789" viewBox="0 0 160.196 161.789">
  <g id="supplies" transform="translate(-2.522 0)">
    <g id="Group_90" data-name="Group 90" transform="translate(128.004 130.283)">
      <g id="Group_89" data-name="Group 89">
        <path id="Path_18" data-name="Path 18" d="M417.086,413.88a3.175,3.175,0,0,0-4.337-1.162l-11.54,6.662a3.175,3.175,0,1,0,3.175,5.5l11.541-6.662A3.175,3.175,0,0,0,417.086,413.88Z" transform="translate(-399.621 -412.293)"/>
      </g>
    </g>
    <g id="Group_92" data-name="Group 92" transform="translate(2.522 0)">
      <g id="Group_91" data-name="Group 91">
        <path id="Path_19" data-name="Path 19" d="M162.717,91.97a3.133,3.133,0,0,0-.026-.388c0-.009,0-.017,0-.026a3.189,3.189,0,0,0-.069-.345c-.008-.032-.017-.063-.026-.095-.027-.092-.058-.184-.094-.274-.012-.031-.023-.063-.037-.094a3.212,3.212,0,0,0-.165-.334l-.006-.01a3.182,3.182,0,0,0-.206-.309c-.02-.027-.042-.052-.063-.078q-.091-.114-.191-.218c-.023-.024-.046-.047-.069-.07a3.123,3.123,0,0,0-.265-.233l-.019-.016a3.171,3.171,0,0,0-.323-.216l-.024-.016L124.256,67.961V25.38c0-.009,0-.018,0-.027a3.164,3.164,0,0,0-.026-.39c0-.007,0-.013,0-.019a3.1,3.1,0,0,0-.071-.352c-.008-.03-.016-.06-.025-.09-.027-.094-.059-.188-.1-.281-.011-.029-.022-.059-.034-.087a2.914,2.914,0,0,0-.379-.656c-.019-.026-.04-.05-.06-.075q-.092-.116-.194-.222l-.067-.069a3.194,3.194,0,0,0-.265-.234l-.019-.016a3.189,3.189,0,0,0-.324-.216l-.023-.015L84.208.425a3.175,3.175,0,0,0-3.175,0l-38.46,22.2-.021.014a3.163,3.163,0,0,0-.326.218l-.015.012a3.178,3.178,0,0,0-.27.237l-.066.068q-.1.106-.194.222c-.02.025-.041.05-.06.076a2.929,2.929,0,0,0-.378.655c-.013.03-.023.061-.035.091q-.054.137-.094.277c-.009.031-.018.062-.026.093a3.167,3.167,0,0,0-.07.348c0,.008,0,.015,0,.023a3.142,3.142,0,0,0-.026.388c0,.009,0,.018,0,.027v42.58L4.109,89.248l-.022.015a3.112,3.112,0,0,0-.325.217l-.015.012a3.069,3.069,0,0,0-.269.237c-.023.022-.045.045-.067.068q-.1.105-.193.221c-.02.025-.042.05-.061.076a3.19,3.19,0,0,0-.208.311l0,.005a3.151,3.151,0,0,0-.167.337c-.013.03-.024.062-.036.093-.035.091-.067.183-.094.275-.009.031-.018.063-.026.094a3.128,3.128,0,0,0-.07.346c0,.008,0,.016,0,.025a3.139,3.139,0,0,0-.026.388c0,.009,0,.018,0,.027V136.41h0A3.175,3.175,0,0,0,4.11,139.16l38.463,22.2.024.012a3.185,3.185,0,0,0,.35.173l.022.008a3.177,3.177,0,0,0,.336.113l.094.024c.094.023.189.042.286.056.033.005.065.011.1.015a2.939,2.939,0,0,0,.755,0c.033,0,.065-.01.1-.015.1-.015.192-.033.285-.056l.095-.024a3.075,3.075,0,0,0,.334-.113l.024-.009a3.108,3.108,0,0,0,.349-.172l.025-.012,36.873-21.288,36.873,21.288.025.012a3.155,3.155,0,0,0,.349.172l.025.009a3.125,3.125,0,0,0,.333.112l.1.024c.093.023.189.042.285.056.033.005.065.011.1.015a2.937,2.937,0,0,0,.755,0c.033,0,.065-.01.1-.015.1-.015.192-.033.285-.056l.1-.024a3.083,3.083,0,0,0,.333-.112l.025-.009a3.212,3.212,0,0,0,.349-.172l.025-.012,38.463-22.2a3.174,3.174,0,0,0,1.588-2.749V92A.21.21,0,0,0,162.717,91.97ZM134,80.916,101.887,99.455,88.97,92l32.11-18.539ZM117.905,67.96,85.8,86.5V49.421l32.11-18.541ZM82.62,6.841,95.537,14.3,63.426,32.838,50.509,25.38ZM44.16,73.459l12.915,7.457L24.963,99.454,12.047,92Zm-3.175,79.658L8.871,134.578V97.5l13.678,7.9a3.163,3.163,0,0,0,1.531.884l16.9,9.759Zm3.175-42.58-12.846-7.416L63.424,84.581,76.27,92Zm35.285,24.041-32.11,18.539V116.036L79.445,97.5Zm0-48.079L47.335,67.96V30.879L61,38.773a3.163,3.163,0,0,0,1.542.89l16.9,9.758V86.5ZM69.776,36.5l32.111-18.54,12.844,7.415L82.62,43.921Zm48.129,116.611L85.8,134.578V97.5l13.678,7.9a3.165,3.165,0,0,0,1.528.882l16.9,9.76v37.081Zm3.175-42.579-12.844-7.416,32.111-18.54L153.193,92Zm35.288,24.041-32.114,18.539V116.036L156.369,97.5Z" transform="translate(-2.522 0)"/>
      </g>
    </g>
    <g id="Group_94" data-name="Group 94" transform="translate(147.601 126.137)">
      <g id="Group_93" data-name="Group 93">
        <path id="Path_20" data-name="Path 20" d="M464.7,399.171c-4.086,0-4.092,6.35,0,6.35S468.8,399.171,464.7,399.171Z" transform="translate(-461.637 -399.171)"/>
      </g>
    </g>
  </g>
</svg>
