<svg xmlns="http://www.w3.org/2000/svg" width="35.074" height="35.075" viewBox="0 0 35.074 35.075">
  <path id="twitter" d="M17.537,0A17.537,17.537,0,1,0,35.074,17.537,17.539,17.539,0,0,0,17.537,0Zm8.007,13.674q.012.259.012.52A11.375,11.375,0,0,1,14.1,25.647h0a11.394,11.394,0,0,1-6.17-1.808,8.188,8.188,0,0,0,.96.056,8.077,8.077,0,0,0,5-1.723,4.03,4.03,0,0,1-3.761-2.8,4.012,4.012,0,0,0,1.818-.069,4.026,4.026,0,0,1-3.229-3.946c0-.018,0-.035,0-.051a4,4,0,0,0,1.823.5A4.029,4.029,0,0,1,9.3,10.439a11.428,11.428,0,0,0,8.3,4.206,4.027,4.027,0,0,1,6.859-3.671A8.074,8.074,0,0,0,27.011,10a4.041,4.041,0,0,1-1.77,2.226,8.028,8.028,0,0,0,2.312-.634,8.18,8.18,0,0,1-2.008,2.085Zm0,0" fill="#fff"/>
</svg>
